<?xml version="1.0" encoding="UTF-8"?>
<svg width="24px" height="23px" viewBox="0 0 16 15" version="1.1" xmlns="http://www.w3.org/2000/svg" xmlns:xlink="http://www.w3.org/1999/xlink">
    <!-- Generator: sketchtool 60 (101010) - https://sketch.com -->
    <title>CFC545FF-D651-4DCD-8FB5-6221A320D5EA</title>
    <desc>Created with sketchtool.</desc>
    <g stroke="none" stroke-width="1" fill="none" fill-rule="evenodd">
        <g id="Check-Out---Checked-In-Snackbar" transform="translate(-16.000000, -545.000000)" fill="#4199ba" fill-rule="nonzero">
            <g id="Check-In-Pin-Icon" transform="translate(16.000000, 544.000000)">
                <ellipse id="Oval" cx="7" cy="7.52941176" rx="2" ry="1.88235294"></ellipse>
                <path d="M14.293,10.6287059 L11,13.728 L9.707,12.5110588 L8.293,13.8418824 L10.293,15.7242353 C10.6834999,16.0916536 11.3165001,16.0916536 11.707,15.7242353 L15.707,11.9595294 L14.293,10.6287059 Z" id="color"></path>
                <path d="M3.559,10.9374118 C2.56087062,10.0532549 1.99646738,8.81946002 2,7.52941176 C1.99760518,5.61390488 3.22906212,3.88817849 5.11394202,3.16562791 C6.99882192,2.44307732 9.16094389,2.86790787 10.5812241,4.23988203 C12.0015043,5.61185619 12.3964858,7.65715786 11.58,9.41176471 L13.708,9.41176471 C14.4923226,6.93673499 13.6677138,4.25864692 11.598839,2.56182771 C9.52996428,0.865008497 6.59845658,0.462460194 4.10071253,1.53220118 C1.60296848,2.60194217 -0.000268056933,4.94664375 -2.54663833e-05,7.52941176 C-0.00508908699,9.29804748 0.752749907,10.9928896 2.1,12.2258824 C2.176,12.3115294 6.251,15.6903529 6.339,15.7637647 C6.52141673,15.9156401 6.75645286,15.9996398 7,16 L7,13.8032941 L3.6,10.9797647 C3.589,10.9637647 3.574,10.9505882 3.559,10.9374118 Z" id="Path"></path>
            </g>
        </g>
    </g>
</svg>